<svg width="143" height="140" viewBox="0 0 143 140" fill="none" xmlns="http://www.w3.org/2000/svg">
<rect width="140" height="140" rx="20" fill="white"/>
<path d="M21.8193 78.2902L17.0274 17.8752C16.4613 10.7363 24.7612 6.43067 30.2608 11.0145L70.3452 44.3918L110.167 10.9184C115.651 6.30419 123.976 10.5794 123.431 17.7284L118.871 77.7842L70.3452 122.623L63.662 115.717L21.8193 78.2902Z" fill="#FFBD7B"/>
<path d="M21.8191 78.2898L64.5117 120.941C67.676 124.103 72.8066 124.093 75.9608 120.921L118.871 77.7839L70.345 44.3914L21.8191 78.2898Z" fill="#FFD3A6"/>
<path d="M21.8196 78.2885L27.0533 94.33C27.2509 94.9366 27.5896 95.4876 28.0405 95.9384L58.7998 126.667C65.0814 132.944 75.327 133.025 81.6929 126.632L112.649 95.5129C113.097 95.0626 113.433 94.5132 113.63 93.9091L118.871 77.7825L75.9608 120.919C72.8066 124.092 67.676 124.102 64.5117 120.94L21.8196 78.2885Z" fill="#FA9A4B"/>
</svg>
