<svg width="708" height="131" viewBox="0 0 708 131" fill="none" xmlns="http://www.w3.org/2000/svg">
<path d="M155.173 98.3291V25.6018H201.764V36.6459H168.348V56.3902H198.568V67.4342H168.348V98.3291H155.173ZM234.942 25.6018V98.3291H221.767V25.6018H234.942ZM316.974 25.6018V98.3291H305.255L270.987 48.7907H270.383V98.3291H257.208V25.6018H268.998L303.231 75.1757H303.87V25.6018H316.974ZM352.504 25.6018V98.3291H339.33V25.6018H352.504ZM437.022 50.1402H423.741C423.362 47.9621 422.664 46.0327 421.646 44.3518C420.628 42.6473 419.361 41.2032 417.846 40.0194C416.331 38.8357 414.603 37.9479 412.662 37.3561C410.744 36.7406 408.672 36.4328 406.447 36.4328C402.493 36.4328 398.99 37.4271 395.936 39.4157C392.882 41.3807 390.491 44.269 388.762 48.0805C387.034 51.8684 386.17 56.4967 386.17 61.9655C386.17 67.5289 387.034 72.2164 388.762 76.028C390.514 79.8158 392.905 82.6804 395.936 84.6217C398.99 86.5393 402.482 87.4981 406.412 87.4981C408.59 87.4981 410.626 87.214 412.52 86.6459C414.437 86.054 416.154 85.1899 417.669 84.0535C419.208 82.9172 420.498 81.5204 421.539 79.8632C422.605 78.206 423.339 76.3121 423.741 74.1814L437.022 74.2524C436.525 77.7088 435.448 80.9522 433.791 83.9825C432.157 87.0128 430.015 89.688 427.363 92.0081C424.712 94.3045 421.61 96.1037 418.059 97.4058C414.508 98.6842 410.566 99.3234 406.234 99.3234C399.842 99.3234 394.136 97.8438 389.118 94.8845C384.099 91.9252 380.145 87.652 377.257 82.0649C374.368 76.4778 372.924 69.778 372.924 61.9655C372.924 54.1293 374.38 47.4295 377.292 41.866C380.204 36.2789 384.17 32.0057 389.189 29.0464C394.208 26.0871 399.889 24.6075 406.234 24.6075C410.282 24.6075 414.047 25.1757 417.527 26.3121C421.007 27.4484 424.108 29.1175 426.831 31.3192C429.553 33.4972 431.79 36.1724 433.542 39.3447C435.318 42.4934 436.478 46.0919 437.022 50.1402Z" fill="#FF5106"/>
<path d="M490.455 98H470.739V39.8182H490.852C496.629 39.8182 501.591 40.983 505.739 43.3125C509.905 45.6231 513.106 48.947 515.341 53.2841C517.576 57.6212 518.693 62.8106 518.693 68.8523C518.693 74.9129 517.566 80.1212 515.312 84.4773C513.078 88.8333 509.848 92.1761 505.625 94.5057C501.42 96.8352 496.364 98 490.455 98ZM481.278 88.8807H489.943C493.996 88.8807 497.377 88.142 500.085 86.6648C502.794 85.1686 504.83 82.9432 506.193 79.9886C507.557 77.0152 508.239 73.303 508.239 68.8523C508.239 64.4015 507.557 60.7083 506.193 57.7727C504.83 54.8182 502.813 52.6117 500.142 51.1534C497.491 49.6761 494.195 48.9375 490.256 48.9375H481.278V88.8807ZM553.687 98.8523C549.426 98.8523 545.732 97.9148 542.607 96.0398C539.482 94.1648 537.058 91.5417 535.335 88.1705C533.63 84.7992 532.778 80.8598 532.778 76.3523C532.778 71.8447 533.63 67.8958 535.335 64.5057C537.058 61.1155 539.482 58.483 542.607 56.608C545.732 54.733 549.426 53.7955 553.687 53.7955C557.948 53.7955 561.641 54.733 564.766 56.608C567.891 58.483 570.306 61.1155 572.011 64.5057C573.734 67.8958 574.596 71.8447 574.596 76.3523C574.596 80.8598 573.734 84.7992 572.011 88.1705C570.306 91.5417 567.891 94.1648 564.766 96.0398C561.641 97.9148 557.948 98.8523 553.687 98.8523ZM553.744 90.6136C556.054 90.6136 557.986 89.9792 559.539 88.7102C561.092 87.4223 562.248 85.6989 563.005 83.5398C563.782 81.3807 564.17 78.9754 564.17 76.3239C564.17 73.6534 563.782 71.2386 563.005 69.0795C562.248 66.9015 561.092 65.1686 559.539 63.8807C557.986 62.5928 556.054 61.9489 553.744 61.9489C551.376 61.9489 549.407 62.5928 547.835 63.8807C546.282 65.1686 545.117 66.9015 544.34 69.0795C543.583 71.2386 543.204 73.6534 543.204 76.3239C543.204 78.9754 543.583 81.3807 544.34 83.5398C545.117 85.6989 546.282 87.4223 547.835 88.7102C549.407 89.9792 551.376 90.6136 553.744 90.6136ZM608.759 98.8523C604.403 98.8523 600.662 97.8958 597.537 95.983C594.431 94.0701 592.035 91.428 590.35 88.0568C588.683 84.6667 587.85 80.7652 587.85 76.3523C587.85 71.9205 588.702 68.0095 590.407 64.6193C592.111 61.2102 594.516 58.5587 597.622 56.6648C600.747 54.7519 604.441 53.7955 608.702 53.7955C612.244 53.7955 615.378 54.4489 618.105 55.7557C620.852 57.0436 623.039 58.8712 624.668 61.2386C626.297 63.5871 627.225 66.3333 627.452 69.4773H617.622C617.225 67.375 616.278 65.6231 614.782 64.2216C613.304 62.8011 611.325 62.0909 608.844 62.0909C606.742 62.0909 604.895 62.6591 603.304 63.7955C601.713 64.9129 600.473 66.5227 599.583 68.625C598.711 70.7273 598.276 73.2462 598.276 76.1818C598.276 79.1553 598.711 81.7121 599.583 83.8523C600.454 85.9735 601.675 87.6117 603.247 88.767C604.838 89.9034 606.704 90.4716 608.844 90.4716C610.359 90.4716 611.713 90.1875 612.907 89.6193C614.119 89.0322 615.132 88.1894 615.946 87.0909C616.761 85.9924 617.319 84.6572 617.622 83.0852H627.452C627.206 86.1723 626.297 88.9091 624.725 91.2955C623.153 93.6629 621.013 95.5189 618.304 96.8636C615.596 98.1894 612.414 98.8523 608.759 98.8523ZM676.785 65.8977L667.41 66.9205C667.145 65.9735 666.681 65.0833 666.018 64.25C665.374 63.4167 664.503 62.7443 663.405 62.233C662.306 61.7216 660.961 61.4659 659.37 61.4659C657.23 61.4659 655.431 61.9299 653.973 62.858C652.533 63.786 651.823 64.9886 651.842 66.4659C651.823 67.7348 652.287 68.767 653.234 69.5625C654.2 70.358 655.791 71.0114 658.007 71.5227L665.45 73.1136C669.579 74.0038 672.647 75.4148 674.655 77.3466C676.681 79.2784 677.704 81.8068 677.723 84.9318C677.704 87.678 676.899 90.1023 675.308 92.2045C673.736 94.2879 671.548 95.9167 668.745 97.0909C665.942 98.2652 662.723 98.8523 659.086 98.8523C653.745 98.8523 649.446 97.7348 646.189 95.5C642.931 93.2462 640.99 90.1117 640.365 86.0966L650.393 85.1307C650.848 87.1004 651.814 88.5871 653.291 89.5909C654.768 90.5947 656.691 91.0966 659.058 91.0966C661.501 91.0966 663.461 90.5947 664.939 89.5909C666.435 88.5871 667.183 87.3466 667.183 85.8693C667.183 84.6193 666.7 83.5871 665.734 82.7727C664.787 81.9583 663.31 81.3333 661.302 80.8977L653.859 79.3352C649.673 78.464 646.577 76.9962 644.569 74.9318C642.562 72.8485 641.567 70.2159 641.586 67.0341C641.567 64.3447 642.297 62.0152 643.774 60.0455C645.27 58.0568 647.344 56.5227 649.995 55.4432C652.666 54.3447 655.744 53.7955 659.228 53.7955C664.342 53.7955 668.367 54.8845 671.302 57.0625C674.257 59.2405 676.084 62.1856 676.785 65.8977Z" fill="#C4C4C4"/>
<g clip-path="url(#clip0_421_1054)">
<path d="M4.81957 69.2903L0.0276339 8.87529C-0.538501 1.7364 7.76145 -2.5692 13.261 2.01467L53.3455 35.3919L93.167 1.91854C98.6514 -2.69569 106.977 1.57955 106.431 8.72857L101.871 68.7844L53.3455 113.623L46.6623 106.717L4.81957 69.2903Z" fill="#FFBD7B"/>
<path d="M4.81957 69.29L47.5122 111.941C50.6765 115.103 55.8071 115.093 58.9613 111.921L101.871 68.784L53.3455 35.3916L4.81957 69.29Z" fill="#FFD3A6"/>
<path d="M4.82007 69.2887L10.0538 85.3302C10.2514 85.9368 10.5901 86.4878 11.041 86.9386L41.8003 117.667C48.0819 123.944 58.3274 124.025 64.6934 117.632L95.6499 86.5131C96.0978 86.0628 96.4334 85.5133 96.63 84.9092L101.871 68.7827L58.9613 111.92C55.8071 115.092 50.6765 115.102 47.5122 111.94L4.82007 69.2887Z" fill="#FA9A4B"/>
</g>
<defs>
<clipPath id="clip0_421_1054">
<rect width="105.789" height="124.303" fill="white" transform="matrix(-1 0 0 1 105.789 0)"/>
</clipPath>
</defs>
</svg>
